<?xml version="1.0" encoding="UTF-8"?>
<svg width="38px" height="540px" viewBox="0 0 38 540" version="1.1" xmlns="http://www.w3.org/2000/svg" xmlns:xlink="http://www.w3.org/1999/xlink">
    <!-- Generator: Sketch 46.2 (44496) - http://www.bohemiancoding.com/sketch -->
    <title>vectorsprite</title>
    <desc>Created with Sketch.</desc>
    <defs></defs>
    <g id="style" stroke="none" stroke-width="1" fill="none" fill-rule="evenodd">
        <g id="vectorsprite">
            <g id="logo-grooveshark" transform="translate(7.000000, 15.000000)">
                <g id="Outline_Icons" stroke-linejoin="round" stroke="#414141">
                    <g id="Group">
                        <circle id="Oval" cx="12" cy="12" r="11.5"></circle>
                        <path d="M0.5,12 C1.167,17.292 12,13.417 8,5 C13.938,2.094 15,15 23,15" id="Shape"></path>
                    </g>
                </g>
                <g id="Frames-24px">
                    <rect id="Rectangle-path" x="0" y="0" width="24" height="24"></rect>
                </g>
            </g>
            <g id="garage" transform="translate(7.000000, 93.000000)">
                <g id="Outline_Icons" transform="translate(0.000000, 4.000000)" stroke-linecap="round" stroke="#414141" stroke-linejoin="round">
                    <g id="Group">
                        <path d="M0.5,19.5 L23.5,19.5" id="Shape"></path>
                        <rect id="Rectangle-path" x="2.5" y="7.5" width="19" height="12"></rect>
                        <polygon id="Shape" points="23.5 5.5 12 0.5 0.5 5.5 0.5 7.5 23.5 7.5"></polygon>
                        <rect id="Rectangle-path" x="4.5" y="9.5" width="15" height="10"></rect>
                        <path d="M6.5,12.5 L17.5,12.5" id="Shape"></path>
                        <path d="M6.5,14.5 L17.5,14.5" id="Shape"></path>
                        <path d="M6.5,16.5 L17.5,16.5" id="Shape"></path>
                    </g>
                </g>
                <g id="invisible_shape">
                    <rect id="Rectangle-path" x="0" y="0" width="24" height="24"></rect>
                </g>
            </g>
            <g id="car-fix" transform="translate(7.000000, 133.000000)">
                <g id="Outline_Icons" stroke-linejoin="round" stroke="#414141">
                    <g id="Group">
                        <rect id="Rectangle-path" stroke-linecap="round" x="6.5" y="9.5" width="2" height="2"></rect>
                        <rect id="Rectangle-path" stroke-linecap="round" x="15.5" y="9.5" width="2" height="2"></rect>
                        <polygon id="Shape" stroke-linecap="round" points="18.5 9.5 18.5 6.5 16.5 4.5 7.5 4.5 5.5 6.5 5.5 9.5"></polygon>
                        <polygon id="Shape" stroke-linecap="round" points="15.5 0.5 8.5 0.5 7.5 4.5 16.5 4.5"></polygon>
                        <path d="M5.5,7.5 L8,7.5" id="Shape" stroke-linecap="round"></path>
                        <path d="M16,7.5 L18.5,7.5" id="Shape" stroke-linecap="round"></path>
                        <path d="M0.5,23.5 L4.5,23.5" id="Shape" stroke-linecap="round"></path>
                        <rect id="Rectangle-path" stroke-linecap="round" x="1.5" y="5.5" width="2" height="18"></rect>
                        <path d="M19.5,23.5 L23.5,23.5" id="Shape" stroke-linecap="round"></path>
                        <rect id="Rectangle-path" stroke-linecap="round" x="20.5" y="5.5" width="2" height="18"></rect>
                        <path d="M3.5,11.5 L20.5,11.5" id="Shape" stroke-linecap="round"></path>
                        <circle id="Oval" cx="12" cy="18" r="1.5"></circle>
                        <path d="M15.429,18 C15.429,17.721 15.393,17.45 15.331,17.19 L16.326,16.616 L15.326,14.884 L14.366,15.459 C13.973,15.087 13.5,14.806 13,14.646 L13,13.5 L11,13.5 L11,14.647 C10.5,14.805 9.956,15.086 9.563,15.459 L8.548,14.884 L7.54,16.616 L8.531,17.19 C8.469,17.45 8.431,17.72 8.431,18 C8.431,18.28 8.465,18.549 8.528,18.81 L7.531,19.384 L8.531,21.116 L9.562,20.541 C9.955,20.913 10.5,21.195 11,21.354 L11,22.5 L13,22.5 L13,21.354 C13.5,21.196 13.974,20.914 14.367,20.542 L15.344,21.117 L16.335,19.385 L15.336,18.811 C15.397,18.55 15.429,18.279 15.429,18 Z" id="Shape"></path>
                    </g>
                </g>
                <g id="invisible_shape">
                    <rect id="Rectangle-path" x="0" y="0" width="24" height="24"></rect>
                </g>
            </g>
            <g id="file-cash-1" transform="translate(7.000000, 173.000000)">
                <g id="Outline_Icons" stroke-linejoin="round" stroke="#414141">
                    <g id="Group">
                        <g transform="translate(11.000000, 11.000000)">
                            <circle id="Oval" cx="6.5" cy="6.5" r="6"></circle>
                            <g transform="translate(5.000000, 2.000000)" id="Shape" stroke-linecap="round">
                                <path d="M0.109,5.82 C0.109,6.588 0.732,7.211 1.5,7.211 C2.268,7.211 2.891,6.588 2.891,5.82 C2.891,5.052 2.268,4.427 1.5,4.427 C0.732,4.427 0.109,3.806 0.109,3.036 C0.109,2.268 0.732,1.645 1.5,1.645 C2.268,1.645 2.891,2.268 2.891,3.036"></path>
                                <path d="M1.5,7.211 L1.5,8.137"></path>
                                <path d="M1.5,0.719 L1.5,1.646"></path>
                            </g>
                        </g>
                        <g stroke-linecap="round" id="Shape">
                            <polyline points="11 21.5 0.5 21.5 0.5 0.5 11.5 0.5 16.5 5.5 16.5 10"></polyline>
                            <polyline points="11.5 0.5 11.5 5.5 16.5 5.5"></polyline>
                        </g>
                    </g>
                </g>
                <g id="Invisible_Shape">
                    <rect id="Rectangle-path" x="0" y="0" width="24" height="24"></rect>
                </g>
            </g>
            <g id="book-2" transform="translate(7.000000, 212.000000)">
                <g id="Outline_Icons_1_" transform="translate(3.000000, 0.000000)" stroke-linecap="round" stroke="#414141" stroke-linejoin="round">
                    <g id="Outline_Icons">
                        <g id="Group">
                            <polyline id="Shape" points="2.5 2.5 14.5 2.5 14.5 4.5"></polyline>
                            <path d="M16.5,4.5 L16.5,0.5 L2.5,0.5 C1.396,0.5 0.5,1.395 0.5,2.5 C0.5,3.604 1.396,4.5 2.5,4.5 L17.5,4.5 L17.5,23.5 L2.5,23.5 C1.396,23.5 0.5,22.604 0.5,21.5 L0.5,2.5" id="Shape"></path>
                        </g>
                    </g>
                </g>
                <g id="Invisible_Shape">
                    <rect id="Rectangle-path" x="0" y="0" width="24" height="24"></rect>
                </g>
            </g>
            <g id="account-circle-1" transform="translate(7.000000, 368.000000)">
                <g id="Outline_Icons_1_" stroke="#414141" stroke-linejoin="round">
                    <g id="Outline_Icons">
                        <g id="Group">
                            <path d="M10,15 C10,15 8.5,14.5 8.5,12 C7.674,12 7.674,10 8.5,10 C8.5,9.665 7,6 9.5,6.5 C10,4.5 15.5,4.5 16,6.5 C16.347,7.888 15.5,9.754 15.5,10 C16.326,10 16.326,12 15.5,12 C15.5,14.5 14,15 14,15 L14,17.5 C16.477,18.429 18.93,19.197 20.186,20.075 C22.234,17.999 23.5,15.147 23.5,12 C23.5,5.648 18.352,0.5 12,0.5 C5.648,0.5 0.5,5.648 0.5,12 C0.5,15.153 1.77,18.009 3.825,20.087 C5.155,19.167 7.777,18.341 10,17.5 L10,15 Z" id="Shape"></path>
                            <path d="M3.825,20.087 C5.91,22.194 8.802,23.5 12,23.5 C15.203,23.5 18.1,22.189 20.186,20.075" id="Shape"></path>
                        </g>
                    </g>
                </g>
                <g id="Invisible_Shape">
                    <rect id="Rectangle-path" x="0" y="0" width="24" height="24"></rect>
                </g>
            </g>
            <g id="cog" transform="translate(7.000000, 329.000000)">
                <g id="Outline_Icons_1_" stroke-linecap="round" stroke="#414141" stroke-linejoin="round">
                    <g id="Outline_Icons">
                        <g id="Group">
                            <path d="M20.254,13.5 L23.5,13.5 L23.5,10.5 L20.253,10.5 C20.044,9.633 19.702,8.319 19.25,7.578 L21.546,5.283 L18.717,2.454 L16.42,4.75 C15.68,4.298 14.367,3.957 13.5,3.748 L13.5,0.5 L10.5,0.5 L10.5,3.748 C9.633,3.957 8.319,4.298 7.579,4.75 L5.282,2.454 L2.453,5.283 L4.75,7.579 C4.298,8.319 3.956,9.633 3.746,10.5 L0.5,10.5 L0.5,13.5 L3.746,13.5 C3.956,14.367 4.298,15.681 4.75,16.421 L2.453,18.718 L5.282,21.546 L7.578,19.249 C8.319,19.703 9.633,20.044 10.5,20.254 L10.5,23.5 L13.5,23.5 L13.5,20.254 C14.367,20.044 15.681,19.702 16.42,19.25 L18.718,21.546 L21.546,18.718 L19.25,16.421 C19.702,15.681 20.044,14.367 20.254,13.5 Z" id="Shape"></path>
                            <circle id="Oval" cx="12" cy="12" r="4.5"></circle>
                        </g>
                    </g>
                </g>
                <g id="Invisible_Shape">
                    <rect id="Rectangle-path" x="0" y="0" width="24" height="24"></rect>
                </g>
            </g>
            <g id="file-graph-pie" transform="translate(7.000000, 290.000000)">
                <g id="Outline_Icons" transform="translate(2.000000, 0.000000)" stroke-linecap="round" stroke="#414141" stroke-linejoin="round">
                    <g id="Group">
                        <g transform="translate(4.000000, 9.000000)">
                            <circle id="Oval" cx="6" cy="5.5" r="5.5"></circle>
                            <polyline id="Shape" points="9.107 0.961 6 5.5 9.525 9.722"></polyline>
                            <path d="M6,5.5 L0.5,5.5" id="Shape"></path>
                        </g>
                        <g id="Shape">
                            <polygon points="19.5 23.5 0.5 23.5 0.5 0.5 13.5 0.5 19.5 6.5"></polygon>
                            <polyline points="13.5 0.5 13.5 6.5 19.5 6.5"></polyline>
                        </g>
                    </g>
                </g>
                <g id="Invisible_Shape">
                    <rect id="Rectangle-path" x="0" y="0" width="24" height="24"></rect>
                </g>
            </g>
            <g id="picture-view-all" transform="translate(7.000000, 251.000000)">
                <g id="Outline_Icons" stroke-linecap="round" stroke="#414141" stroke-linejoin="round">
                    <g id="Group">
                        <path d="M22.5,2.5 C22.5,1.396 21.604,0.5 20.5,0.5 L2.5,0.5 C1.396,0.5 0.5,1.396 0.5,2.5 L0.5,20.5 C0.5,21.604 1.396,22.5 2.5,22.5 L20.5,22.5 C21.604,22.5 22.5,21.604 22.5,20.5 L22.5,2.5 Z" id="Shape"></path>
                        <rect id="Rectangle-path" x="3.5" y="3.5" width="4" height="4"></rect>
                        <rect id="Rectangle-path" x="9.5" y="3.5" width="4" height="4"></rect>
                        <rect id="Rectangle-path" x="15.5" y="3.5" width="4" height="4"></rect>
                        <rect id="Rectangle-path" x="3.5" y="9.5" width="4" height="4"></rect>
                        <rect id="Rectangle-path" x="9.5" y="9.5" width="4" height="4"></rect>
                        <rect id="Rectangle-path" x="15.5" y="9.5" width="4" height="4"></rect>
                        <rect id="Rectangle-path" x="3.5" y="15.5" width="4" height="4"></rect>
                    </g>
                </g>
                <g id="Invisible_Shape">
                    <rect id="Rectangle-path" x="0" y="0" width="24" height="24"></rect>
                </g>
            </g>
            <g id="logout-3" transform="translate(7.000000, 407.000000)">
                <g id="Outline_Icons_1_" transform="translate(1.000000, 1.000000)" stroke-linecap="round" stroke="#414141" stroke-linejoin="round">
                    <g id="Outline_Icons">
                        <g id="Group">
                            <g transform="translate(0.000000, 7.000000)" id="Shape">
                                <path d="M0.5,4.5 L15.5,4.5"></path>
                                <polyline points="11.5 0.5 15.5 4.5 11.5 8.5"></polyline>
                            </g>
                            <path d="M1.482,6.951 C3.213,3.146 7.048,0.5 11.5,0.5 C17.575,0.5 22.5,5.425 22.5,11.5 C22.5,17.575 17.575,22.5 11.5,22.5 C7.027,22.5 3.178,19.831 1.458,15.998" id="Shape"></path>
                        </g>
                    </g>
                </g>
                <g id="Invisible_SHape">
                    <rect id="Rectangle-path" x="0" y="0" width="24" height="24"></rect>
                </g>
            </g>
            <g id="euro-sign-circle" transform="translate(7.000000, 54.000000)">
                <g id="Outline_Icons" stroke-linecap="round" stroke="#414141" stroke-linejoin="round">
                    <g id="Group">
                        <circle id="Oval" cx="12" cy="12" r="11.5"></circle>
                        <path d="M14.5,17.5 C10.91,17.5 8,16.5 8,12 C8,7.5 10.91,6.5 14.5,6.5" id="Shape"></path>
                        <path d="M6.5,13.5 L12,13.5" id="Shape"></path>
                        <path d="M6.5,11.5 L13,11.5" id="Shape"></path>
                    </g>
                </g>
                <g id="Invisible_Shape">
                    <rect id="Rectangle-path" x="0" y="0" width="24" height="24"></rect>
                </g>
            </g>
            <g id="pag-arrow" transform="translate(10.000000, 446.000000)" stroke-linecap="round" stroke="#BFBEBF" stroke-linejoin="round">
                <g id="Group-2">
                    <path d="M17.5,5.5 L0.5,5.5" id="Shape"></path>
                    <polyline id="Shape" points="5.5 0.492 0.5 5.492 5.5 10.492"></polyline>
                </g>
            </g>
            <g id="pag-arrow" transform="translate(19.000000, 477.500000) scale(-1, 1) translate(-19.000000, -477.500000) translate(10.000000, 472.000000)" stroke-linecap="round" stroke="#BFBEBF" stroke-linejoin="round">
                <g id="Group-2">
                    <path d="M17.5,5.5 L0.5,5.5" id="Shape"></path>
                    <polyline id="Shape" points="5.5 0.492 0.5 5.492 5.5 10.492"></polyline>
                </g>
            </g>
            <path d="M11,526 C11,526 12.2550263,507.525611 20.1679392,499 C20.1679392,499 28,508.943024 28,523.659512 C28,523.659512 24.71997,516.238765 21.7419707,516.238765 C18.3385886,516.238765 11,526 11,526" id="Fill-1" fill="#00468D"></path>
        </g>
    </g>
</svg>