<?xml version="1.0" encoding="UTF-8"?>
<svg width="20px" height="20px" viewBox="0 0 20 20" version="1.1" xmlns="http://www.w3.org/2000/svg" xmlns:xlink="http://www.w3.org/1999/xlink">
    <!-- Generator: Sketch 46.2 (44496) - http://www.bohemiancoding.com/sketch -->
    <title>info</title>
    <desc>Created with Sketch.</desc>
    <defs></defs>
    <g id="v3" stroke="none" stroke-width="1" fill="none" fill-rule="evenodd">
        <g id="info">
            <g id="infoIcon">
                <g id="Group-7">
                    <circle id="Oval-2" fill="#9B9B9B" cx="10" cy="10" r="10"></circle>
                    <path d="M10.7636719,15.2060547 L9.10253906,15.2060547 L9.10253906,7.80957031 L10.7636719,7.80957031 L10.7636719,15.2060547 Z M9,5.88867188 C9,5.63346227 9.08089112,5.42155032 9.24267578,5.25292969 C9.40446044,5.08430905 9.63574068,5 9.93652344,5 C10.2373062,5 10.4697257,5.08430905 10.6337891,5.25292969 C10.7978524,5.42155032 10.8798828,5.63346227 10.8798828,5.88867188 C10.8798828,6.13932417 10.7978524,6.34781818 10.6337891,6.51416016 C10.4697257,6.68050213 10.2373062,6.76367188 9.93652344,6.76367188 C9.63574068,6.76367188 9.40446044,6.68050213 9.24267578,6.51416016 C9.08089112,6.34781818 9,6.13932417 9,5.88867188 Z" id="i" fill="#FFFFFF"></path>
                </g>
            </g>
        </g>
    </g>
</svg>