<?xml version="1.0" encoding="UTF-8"?>
<svg width="184px" height="100px" viewBox="0 0 184 100" version="1.1" xmlns="http://www.w3.org/2000/svg" xmlns:xlink="http://www.w3.org/1999/xlink">
    <!-- Generator: Sketch 42 (36781) - http://www.bohemiancoding.com/sketch -->
    <title>gui sprite</title>
    <desc>Created with Sketch.</desc>
    <defs></defs>
    <g id="assets" stroke="none" stroke-width="1" fill="none" fill-rule="evenodd">
        <g id="gui-sprite">
            <path d="M23.5675,18.5025 C23.5675,17.294375 22.65625,16.415625 22.2275,15.25375 C22.226875,11.965625 19.188125,10 16.25,10 C12.745625,10 10,12.7625 10,16.28875 C10,18.53875 10.840625,20.210625 12.5,21.261875 L12.5,24.686875 C12.5,24.86 12.64,25 12.8125,25 L19.0625,25 C19.235,25 19.375,24.86 19.375,24.6875 L19.375,22.82625 C20.460625,22.815625 21.1175,22.704375 21.6075,22.213125 C22.129375,21.690625 22.204375,20.125625 22.20875,19.383125 C22.398125,19.38625 22.63625,19.386875 22.844375,19.37875 C23.193125,19.37875 23.5675,19.140625 23.5675,18.5025 Z" fill="#BFBEBF"></path>
            <g id="shark-facing-right" transform="translate(33.567500, 11.000000)" fill="#FFFFFF">
                <g id="Capa_1">
                    <path d="M18.9667241,3.00694581 C18.6151478,1.95391626 16.9468966,-8.8817842e-16 16.4496059,-8.8817842e-16 C15.9523892,-8.8817842e-16 15.7978818,3.19913793 14.6940148,3.4755665 C13.6340394,3.74046798 8.46073892,4.96795567 8.46073892,4.96795567 C8.46073892,4.96795567 7.60913793,4.27455665 7.34896552,4.32384236 C7.13024631,4.36544335 7.02421182,5.33667488 6.35541872,5.38751232 C5.68743842,5.43812808 4.80635468,5.39830049 4.80635468,5.39830049 C3.25485222,2.29559113 0,2.12866995 0,2.12866995 C1.67172414,4.61586207 3.28078818,6.25433498 0.998497537,9.70795567 C2.57866995,9.70795567 4.59805419,7.3085468 4.74435961,6.7817734 C5.30401478,6.63384236 5.94805419,6.63931034 6.29541872,7.04504926 C6.55869458,7.35258621 6.56586207,7.49408867 6.77105911,7.55261084 C6.97581281,7.61105911 7.20243842,7.103867 7.5537931,7.103867 C7.90492611,7.103867 9.60694581,7.64253695 10.0412069,7.77665025 C10.4750985,7.91054187 10.9190394,9.44416256 11.475,9.5029064 C12.0308128,9.56172414 13.2892611,8.47876847 13.5818719,8.47876847 C13.8745567,8.47876847 16.0399507,8.80049261 18.4397291,8.7123399 C18.8493842,9.15155172 19.3768227,10.0383251 18.3063547,11.6980788 C18.1018966,12.0200246 18.1601232,12.5468719 18.8334975,12.0200246 C19.5063547,11.4928818 20.7486207,10.7544828 22.0069951,8.47211823 C23.2944828,8.35485222 29.9903941,6.72317734 29.9903941,5.5235468 C29.990468,4.32384236 22.6245813,2.88982759 18.9667241,3.00694581 Z" id="Shape"></path>
                </g>
            </g>
            <g id="icon" transform="translate(98.567500, 10.000000)" fill="#FFFFFF">
                <circle id="Oval" cx="2.03625" cy="1.92975" r="1.875"></circle>
                <path d="M6.588,3 L17.25,3 C17.664,3 18,2.66475 18,2.25 C18,1.836 17.664,1.5 17.25,1.5 L6.588,1.5 C6.174,1.5 5.838,1.836 5.838,2.25 C5.838,2.66475 6.174,3 6.588,3 Z" id="Shape"></path>
                <circle id="Oval" cx="2.03625" cy="7.92975" r="1.875"></circle>
                <path d="M17.25,7.5 L6.588,7.5 C6.174,7.5 5.838,7.836 5.838,8.25 C5.838,8.66475 6.174,9 6.588,9 L17.25,9 C17.664,9 18,8.66475 18,8.25 C18,7.836 17.664,7.5 17.25,7.5 Z" id="Shape"></path>
                <circle id="Oval" cx="2.03625" cy="13.92975" r="1.875"></circle>
                <path d="M17.25,13.5 L6.588,13.5 C6.174,13.5 5.838,13.836 5.838,14.25 C5.838,14.66475 6.174,15 6.588,15 L17.25,15 C17.664,15 18,14.66475 18,14.25 C18,13.836 17.664,13.5 17.25,13.5 Z" id="Shape"></path>
            </g>
            <g id="Group-3" transform="translate(126.567500, 10.000000)" fill="#FFFFFF">
                <path d="M17.625,0 L0.375,0 C0.168,0 0,0.168 0,0.375 L0,3.375 C0,3.582 0.168,3.75 0.375,3.75 L17.625,3.75 C17.832,3.75 18,3.582 18,3.375 L18,0.375 C18,0.168 17.832,0 17.625,0 Z" id="Shape"></path>
                <path d="M16.875,4.5 L1.125,4.5 C0.918,4.5 0.75,4.668 0.75,4.875 L0.75,13.875 C0.75,14.082 0.918,14.25 1.125,14.25 L16.875,14.25 C17.082,14.25 17.25,14.082 17.25,13.875 L17.25,4.875 C17.25,4.668 17.082,4.5 16.875,4.5 Z M12,7.875 C12,8.082 11.832,8.25 11.625,8.25 L6.375,8.25 C6.168,8.25 6,8.082 6,7.875 L6,6.375 C6,6.168 6.168,6 6.375,6 L11.625,6 C11.832,6 12,6.168 12,6.375 L12,7.875 Z" id="Shape"></path>
            </g>
            <path d="M88.0664236,20.9626601 L86.4308426,19.3270791 C85.7634082,18.6589779 84.6825779,18.6589779 84.0138099,19.3270791 L83.5757436,19.7651454 C81.8621508,18.3475974 80.2165683,16.7020149 78.8023541,14.9910891 L79.2404204,14.5530228 C79.9065213,13.8869219 79.9065213,12.8027578 79.2404204,12.1366569 L77.6048394,10.5010759 C76.937405,9.83297471 75.8559079,9.83297471 75.1878068,10.5010759 L74.2903375,11.3985451 C73.4615454,12.2266705 73.3295254,13.539536 73.9769567,14.5190176 C76.6000206,18.4842848 80.082548,21.9668121 84.0484819,24.589876 C85.0152949,25.2293062 86.3214927,25.1252904 87.1689544,24.2764952 L88.0664236,23.379026 C88.7358583,22.7115916 88.7331913,21.6287609 88.0664236,20.9626601 Z" id="Shape" fill="#FFFFFF"></path>
            <g id="shark-fin-logo" transform="translate(155.000000, 9.000000)" fill="#FFFFFF">
                <g id="Capa_1">
                    <path d="M8.98429228,0 C4.02046347,0 0,4.0197119 0,8.98429228 C0,13.9481211 4.02046347,17.9685846 8.98429228,17.9685846 C13.9481211,17.9685846 17.9685846,13.9481211 17.9685846,8.98429228 C17.9686221,4.0197119 13.9481211,0 8.98429228,0 Z M13.8253528,11.7522338 C13.1290647,11.7522338 12.4410063,10.3678873 12.4410063,10.3678873 C12.4410063,10.3678873 11.4572067,6.91117328 6.91267641,6.21864301 C7.31021712,12.4387891 5.010238,11.6885762 4.14774113,11.7514823 C3.28148643,11.8076242 2.78064301,10.5498413 2.78064301,8.98432985 C2.78064301,5.56057203 5.55978288,2.78068058 8.98429228,2.78068058 C12.4072985,2.78068058 15.1071106,5.56057203 15.1916994,8.98432985 C15.2006806,9.6708476 14.5119081,11.7522338 13.8253528,11.7522338 Z" id="Grooveshark_3_"></path>
                </g>
            </g>
            <g id="person-check-2.2.3.1" transform="translate(11.000000, 42.000000)">
                <g id="Group">
                    <g id="Filled_Icons_1_" fill-rule="nonzero" fill="#FFFFFF">
                        <g id="Filled_Icons">
                            <g id="Group">
                                <path d="M11.5625,8.125 C9.664375,8.125 8.125,9.664375 8.125,11.5625 C8.125,13.460625 9.664375,15 11.5625,15 C13.460625,15 15,13.460625 15,11.5625 C15,9.664375 13.460625,8.125 11.5625,8.125 Z M13.34625,10.84625 L11.47125,12.72125 C11.349375,12.843125 11.15125,12.843125 11.029375,12.72125 L9.779375,11.47125 C9.6575,11.349375 9.6575,11.15125 9.779375,11.029375 C9.90125,10.9075 10.099375,10.9075 10.22125,11.029375 L11.25,12.058125 L12.90375,10.404375 C13.025625,10.2825 13.22375,10.2825 13.345625,10.404375 C13.468125,10.52625 13.468125,10.72375 13.34625,10.84625 Z" id="Shape"></path>
                                <path d="M7.5,11.5625 C7.5,10.140625 8.235625,8.889375 9.345,8.163125 C8.84875,7.98375 8.243125,7.77125 7.5,7.5 L7.5,6.38625 C7.80375,6.183125 8.363125,5.6625 8.430625,4.55625 C8.66,4.4125 8.80375,4.101875 8.80375,3.705625 C8.80375,3.356875 8.6925,3.075 8.509375,2.914375 C8.66125,2.516875 8.9125,1.82125 8.74,1.130625 C8.533125,0.29625 7.35375,0 6.40625,0 C5.5675,0 4.545625,0.2325 4.179375,0.865 C3.741875,0.84 3.499375,1.0275 3.38125,1.184375 C3.056875,1.615625 3.2075,2.2925 3.3825,2.9 C3.176875,3.055625 3.05,3.350625 3.05,3.71625 C3.05,4.118125 3.2025,4.414375 3.44375,4.55625 C3.5125,5.6625 4.07125,6.183125 4.375,6.38625 L4.375,7.5 C1.4075,8.5825 0.625,8.736875 0.328125,9.52125 C0.02,10.45125 0,12.100625 0,12.1875 C0,12.36 0.14,12.5 0.3125,12.5 L7.61375,12.5 C7.541875,12.19875 7.5,11.88625 7.5,11.5625 Z" id="Shape"></path>
                            </g>
                        </g>
                    </g>
                    <g id="Invisible_Shape">
                        <rect id="Rectangle-path" x="0" y="0" width="15" height="15"></rect>
                    </g>
                </g>
            </g>
            <g id="folder-medium.2.3.1" transform="translate(41.000000, 41.000000)">
                <g id="Group">
                    <g id="Filled_Icons" transform="translate(1.250000, 2.500000)" fill-rule="nonzero" fill="#FFFFFF">
                        <path d="M11.5625,1.25 L4.816875,1.25 L3.658125,0.091875 C3.6,0.033125 3.520625,0 3.4375,0 L0.3125,0 C0.14,0 0,0.14 0,0.3125 L0,9.0625 C0,9.235625 0.14,9.375 0.3125,9.375 L11.5625,9.375 C11.735,9.375 11.875,9.235625 11.875,9.0625 L11.875,1.5625 C11.875,1.39 11.735,1.25 11.5625,1.25 Z" id="Shape"></path>
                    </g>
                    <g id="Invisible_Shape">
                        <rect id="Rectangle-path" x="0" y="0" width="15" height="15"></rect>
                    </g>
                </g>
            </g>
            <g id="Group-6" transform="translate(74.000000, 41.000000)" fill-rule="nonzero" fill="#FFFFFF">
                <path d="M4.01041667,5 L0.364583333,5 C0.163333333,5 0,5.16 0,5.35714286 L0,7.5 C0,8.27357143 0.245,8.73571429 0.729166667,8.88 L0.729166667,11.7857143 C0.729166667,11.9828571 0.8925,12.1428571 1.09375,12.1428571 L3.28125,12.1428571 C3.4825,12.1428571 3.64583333,11.9828571 3.64583333,11.7857143 L3.64583333,8.88 C4.12927083,8.73571429 4.37354167,8.27357143 4.375,7.5 L4.375,5.35714286 C4.375,5.16 4.21166667,5 4.01041667,5 Z" id="Shape"></path>
                <path d="M17.1354167,5 L13.4895833,5 C13.2883333,5 13.125,5.16 13.125,5.35714286 L13.125,7.5 C13.125,8.27357143 13.37,8.73571429 13.8541667,8.88 L13.8541667,11.7857143 C13.8541667,11.9828571 14.0175,12.1428571 14.21875,12.1428571 L16.40625,12.1428571 C16.6075,12.1428571 16.7708333,11.9828571 16.7708333,11.7857143 L16.7708333,8.88 C17.2542708,8.73571429 17.4992708,8.27357143 17.5,7.5 L17.5,5.35714286 C17.5,5.16 17.3366667,5 17.1354167,5 Z" id="Shape"></path>
                <path d="M11.3020833,5 L6.19791667,5 C5.99666667,5 5.83333333,5.16 5.83333333,5.35714286 L5.83333333,8.92857143 C5.83333333,9.79142857 6.46041667,10.5121429 7.29166667,10.6785714 L7.29166667,14.6428571 C7.29166667,14.84 7.455,15 7.65625,15 L9.84375,15 C10.045,15 10.2083333,14.84 10.2083333,14.6428571 L10.2083333,10.6785714 C11.0395833,10.5128571 11.6666667,9.79142857 11.6666667,8.92857143 L11.6666667,5.35714286 C11.6666667,5.16 11.5033333,5 11.3020833,5 Z" id="Shape"></path>
                <ellipse id="Oval" cx="2.1875" cy="2.85714286" rx="1.45833333" ry="1.42857143"></ellipse>
                <ellipse id="Oval" cx="15.3125" cy="2.85714286" rx="1.45833333" ry="1.42857143"></ellipse>
                <ellipse id="Oval" cx="8.75" cy="2.14285714" rx="2.1875" ry="2.14285714"></ellipse>
            </g>
            <g id="Group" transform="translate(100.000000, 38.000000)" fill-rule="nonzero" fill="#FFFFFF">
                <path d="M15.375,9.75 L8.25,9.75 L8.25,2.625 C8.25,2.418 8.08125,2.25 7.875,2.25 C3.5325,2.25 0,5.7825 0,10.125 C0,14.4675 3.5325,18 7.875,18 C12.21675,18 15.75,14.4675 15.75,10.125 C15.75,9.918 15.58125,9.75 15.375,9.75 Z" id="Shape"></path>
                <path d="M10.125,0 C9.918,0 9.75,0.168 9.75,0.375 L9.75,7.875 C9.75,8.08125 9.918,8.25 10.125,8.25 L17.625,8.25 C17.83125,8.25 18,8.08125 18,7.875 C18,3.5325 14.46675,0 10.125,0 Z" id="Shape"></path>
            </g>
            <path d="M29.4414062,78.2207031 C29.4414062,79.7636796 29.1484404,81.2187432 28.5625,82.5859375 C27.9765596,83.9531318 27.1757863,85.1445262 26.1601562,86.1601562 C25.1445262,87.1757863 23.9531318,87.9765596 22.5859375,88.5625 C21.2187432,89.1484404 19.7636796,89.4414062 18.2207031,89.4414062 C16.6777267,89.4414062 15.2226631,89.1484404 13.8554688,88.5625 C12.4882744,87.9765596 11.2968801,87.1757863 10.28125,86.1601562 C9.26561992,85.1445262 8.46484668,83.9531318 7.87890625,82.5859375 C7.29296582,81.2187432 7,79.7636796 7,78.2207031 C7,76.6777267 7.29296582,75.2226631 7.87890625,73.8554688 C8.46484668,72.4882744 9.26561992,71.2968801 10.28125,70.28125 C11.2968801,69.2656199 12.4882744,68.4648467 13.8554688,67.8789062 C15.2226631,67.2929658 16.6777267,67 18.2207031,67 C19.7636796,67 21.2187432,67.2929658 22.5859375,67.8789062 C23.9531318,68.4648467 25.1445262,69.2656199 26.1601562,70.28125 C27.1757863,71.2968801 27.9765596,72.4882744 28.5625,73.8554688 C29.1484404,75.2226631 29.4414062,76.6777267 29.4414062,78.2207031 Z M28.5039062,78.2207031 C28.5039062,76.7949147 28.2353542,75.4570375 27.6982422,74.2070312 C27.1611301,72.957025 26.4287156,71.8681687 25.5009766,70.9404297 C24.5732375,70.0126907 23.4843813,69.2802761 22.234375,68.7431641 C20.9843687,68.206052 19.6464915,67.9375 18.2207031,67.9375 C16.7949147,67.9375 15.4570375,68.206052 14.2070312,68.7431641 C12.957025,69.2802761 11.8681687,70.0126907 10.9404297,70.9404297 C10.0126907,71.8681687 9.28027612,72.957025 8.74316406,74.2070312 C8.206052,75.4570375 7.9375,76.7949147 7.9375,78.2207031 C7.9375,79.6464915 8.206052,80.9843687 8.74316406,82.234375 C9.28027612,83.4843813 10.0126907,84.5732375 10.9404297,85.5009766 C11.8681687,86.4287156 12.957025,87.1611301 14.2070312,87.6982422 C15.4570375,88.2353542 16.7949147,88.5039062 18.2207031,88.5039062 C19.6464915,88.5039062 20.9843687,88.2353542 22.234375,87.6982422 C23.4843813,87.1611301 24.5732375,86.4287156 25.5009766,85.5009766 C26.4287156,84.5732375 27.1611301,83.4843813 27.6982422,82.234375 C28.2353542,80.9843687 28.5039062,79.6464915 28.5039062,78.2207031 Z M18.2207031,76.5169772 L14.3535156,79.9785156 C14.2558589,80.056641 14.1386726,80.0957031 14.0019531,80.0957031 C13.8652337,80.0957031 13.7578129,80.056641 13.6796875,79.9785156 C13.5820308,79.9003902 13.5332031,79.802735 13.5332031,79.6855469 C13.5332031,79.5683588 13.5820308,79.460938 13.6796875,79.3632812 L17.8984375,75.6132812 C17.9765629,75.5351559 18.0839837,75.4960938 18.2207031,75.4960938 C18.3574226,75.4960938 18.4648434,75.5351559 18.5429688,75.6132812 L22.7617188,79.3632812 C22.8593755,79.460938 22.9082031,79.5683588 22.9082031,79.6855469 C22.9082031,79.802735 22.8593755,79.9003902 22.7617188,79.9785156 C22.6835934,80.056641 22.5761726,80.0957031 22.4394531,80.0957031 C22.3027337,80.0957031 22.1855474,80.056641 22.0878906,79.9785156 L18.2207031,76.5169772 L18.2207031,76.5169772 Z" id="arrow-up-in-circle-copy---caroobi-v8" fill="#FFFFFF"></path>
            <path d="M59.4414062,78.2207031 C59.4414062,79.7636796 59.1484404,81.2187432 58.5625,82.5859375 C57.9765596,83.9531318 57.1757863,85.1445262 56.1601562,86.1601562 C55.1445262,87.1757863 53.9531318,87.9765596 52.5859375,88.5625 C51.2187432,89.1484404 49.7636796,89.4414062 48.2207031,89.4414062 C46.6777267,89.4414062 45.2226631,89.1484404 43.8554688,88.5625 C42.4882744,87.9765596 41.2968801,87.1757863 40.28125,86.1601562 C39.2656199,85.1445262 38.4648467,83.9531318 37.8789062,82.5859375 C37.2929658,81.2187432 37,79.7636796 37,78.2207031 C37,76.6777267 37.2929658,75.2226631 37.8789062,73.8554688 C38.4648467,72.4882744 39.2656199,71.2968801 40.28125,70.28125 C41.2968801,69.2656199 42.4882744,68.4648467 43.8554688,67.8789062 C45.2226631,67.2929658 46.6777267,67 48.2207031,67 C49.7636796,67 51.2187432,67.2929658 52.5859375,67.8789062 C53.9531318,68.4648467 55.1445262,69.2656199 56.1601562,70.28125 C57.1757863,71.2968801 57.9765596,72.4882744 58.5625,73.8554688 C59.1484404,75.2226631 59.4414062,76.6777267 59.4414062,78.2207031 Z M58.5039062,78.2207031 C58.5039062,76.7949147 58.2353542,75.4570375 57.6982422,74.2070312 C57.1611301,72.957025 56.4287156,71.8681687 55.5009766,70.9404297 C54.5732375,70.0126907 53.4843813,69.2802761 52.234375,68.7431641 C50.9843687,68.206052 49.6464915,67.9375 48.2207031,67.9375 C46.7949147,67.9375 45.4570375,68.206052 44.2070312,68.7431641 C42.957025,69.2802761 41.8681687,70.0126907 40.9404297,70.9404297 C40.0126907,71.8681687 39.2802761,72.957025 38.7431641,74.2070312 C38.206052,75.4570375 37.9375,76.7949147 37.9375,78.2207031 C37.9375,79.6464915 38.206052,80.9843687 38.7431641,82.234375 C39.2802761,83.4843813 40.0126907,84.5732375 40.9404297,85.5009766 C41.8681687,86.4287156 42.957025,87.1611301 44.2070312,87.6982422 C45.4570375,88.2353542 46.7949147,88.5039062 48.2207031,88.5039062 C49.6464915,88.5039062 50.9843687,88.2353542 52.234375,87.6982422 C53.4843813,87.1611301 54.5732375,86.4287156 55.5009766,85.5009766 C56.4287156,84.5732375 57.1611301,83.4843813 57.6982422,82.234375 C58.2353542,80.9843687 58.5039062,79.6464915 58.5039062,78.2207031 Z M48.2207031,76.5169772 L44.3535156,79.9785156 C44.2558589,80.056641 44.1386726,80.0957031 44.0019531,80.0957031 C43.8652337,80.0957031 43.7578129,80.056641 43.6796875,79.9785156 C43.5820308,79.9003902 43.5332031,79.802735 43.5332031,79.6855469 C43.5332031,79.5683588 43.5820308,79.460938 43.6796875,79.3632812 L47.8984375,75.6132812 C47.9765629,75.5351559 48.0839837,75.4960938 48.2207031,75.4960938 C48.3574226,75.4960938 48.4648434,75.5351559 48.5429688,75.6132812 L52.7617188,79.3632812 C52.8593755,79.460938 52.9082031,79.5683588 52.9082031,79.6855469 C52.9082031,79.802735 52.8593755,79.9003902 52.7617188,79.9785156 C52.6835934,80.056641 52.5761726,80.0957031 52.4394531,80.0957031 C52.3027337,80.0957031 52.1855474,80.056641 52.0878906,79.9785156 L48.2207031,76.5169772 L48.2207031,76.5169772 Z" id="arrow-up-in-circle-copy---caroobi-v8" fill="#FFFFFF" transform="translate(48.220703, 78.220703) scale(1, -1) translate(-48.220703, -78.220703) "></path>
        </g>
    </g>
</svg>