<?xml version="1.0" encoding="UTF-8"?>
<svg width="33px" height="26px" viewBox="0 0 33 26" version="1.1" xmlns="http://www.w3.org/2000/svg" xmlns:xlink="http://www.w3.org/1999/xlink">
    <!-- Generator: Sketch 46.2 (44496) - http://www.bohemiancoding.com/sketch -->
    <title>robot</title>
    <desc>Created with Sketch.</desc>
    <defs></defs>
    <g id="assets" stroke="none" stroke-width="1" fill="none" fill-rule="evenodd">
        <g id="robot" fill-rule="nonzero" fill="#414141">
            <g transform="translate(1.000000, 1.000000)" id="Shape">
                <path d="M25.4512865,16.9673684 C25.1753216,16.9673684 24.9522807,17.1909357 24.9522807,17.4663743 L24.9522807,21.4585965 C24.9522807,22.2839766 24.2805848,22.9556725 23.4552047,22.9556725 L6.48830409,22.9556725 C5.66292398,22.9556725 4.99122807,22.2839766 4.99122807,21.4585965 L4.99122807,17.4663743 C4.99122807,17.1909357 4.76818713,16.9673684 4.49222222,16.9673684 C4.21625731,16.9673684 3.99321637,17.1909357 3.99321637,17.4663743 L3.99321637,21.4585965 C3.99321637,22.834386 5.11251462,23.9537427 6.48836257,23.9537427 L23.4552047,23.9537427 C24.8309942,23.9537427 25.9503509,22.8344444 25.9503509,21.4585965 L25.9503509,17.4663743 C25.9502924,17.1909357 25.7272515,16.9673684 25.4512865,16.9673684 Z"></path>
                <path d="M4.99122807,15.4702924 L4.99122807,10.4800585 C4.99122807,9.65467836 5.66292398,8.98298246 6.48830409,8.98298246 L10.4805263,8.98298246 C10.7564912,8.98298246 10.9795322,8.7594152 10.9795322,8.48397661 C10.9795322,6.51684211 13.125848,4.99081871 14.9717544,4.99081871 C16.2702339,4.99081871 17.6450292,5.70789474 18.3940936,6.77532164 C18.5522807,7.00040936 18.8631579,7.05578947 19.0892398,6.89760234 C19.3147953,6.73888889 19.3697076,6.4280117 19.2109942,6.20245614 C18.3656725,4.99678363 16.9369591,4.18040936 15.4708187,4.02520468 L15.4708187,2.90280702 C16.0501754,2.69573099 16.4688889,2.14730994 16.4688889,1.49754386 C16.4688889,0.672163743 15.797193,0.000467836257 14.9718129,0.000467836257 C14.1464327,0.000467836257 13.4747368,0.672163743 13.4747368,1.49754386 C13.4747368,2.14725146 13.8933918,2.69573099 14.472807,2.9022807 L14.472807,4.02356725 C12.4163158,4.25111111 10.3044444,5.84251462 10.0150292,7.9848538 L6.48830409,7.9848538 C5.11251462,7.9848538 3.99315789,9.10415205 3.99315789,10.48 L3.99216374,14.9712281 L2.90233918,14.9712281 C2.69526316,14.391345 2.14684211,13.9731579 1.49707602,13.9731579 C0.671695906,13.9731579 0,14.6448538 0,15.4702339 C0,16.295614 0.671695906,16.9673099 1.49707602,16.9673099 C2.14678363,16.9673099 2.69526316,16.5491228 2.90233918,15.9692398 L4.49222222,15.9692398 C4.76818713,15.9692982 4.99122807,15.745731 4.99122807,15.4702924 Z M14.9717544,0.998538012 C15.247193,0.998538012 15.4707602,1.2225731 15.4707602,1.49754386 C15.4707602,1.77251462 15.247193,1.99654971 14.9717544,1.99654971 C14.6963158,1.99654971 14.4727485,1.77251462 14.4727485,1.49754386 C14.4727485,1.22263158 14.6963158,0.998538012 14.9717544,0.998538012 Z M1.49707602,15.9692982 C1.22163743,15.9692982 0.998070175,15.7452632 0.998070175,15.4702924 C0.998070175,15.1953216 1.22163743,14.9712865 1.49707602,14.9712865 C1.77251462,14.9712865 1.99608187,15.1953216 1.99608187,15.4702924 C1.99608187,15.7452632 1.77251462,15.9692982 1.49707602,15.9692982 Z"></path>
                <path d="M28.4454386,13.9732164 C27.795731,13.9732164 27.2473099,14.3914035 27.0407018,14.9712865 L25.9502924,14.9712865 L25.9502924,10.4800585 C25.9502924,9.10426901 24.8309942,7.98491228 23.4551462,7.98491228 L12.4766082,7.98491228 C12.2006433,7.98491228 11.9776023,8.20847953 11.9776023,8.48391813 C11.9776023,8.75935673 12.2006433,8.98292398 12.4766082,8.98292398 L23.4551462,8.98292398 C24.2805263,8.98292398 24.9522222,9.65461988 24.9522222,10.48 L24.9522222,15.4702339 C24.9522222,15.7456725 25.1752632,15.9692398 25.4512281,15.9692398 L27.0406433,15.9692398 C27.2472515,16.5491228 27.7956725,16.9673099 28.4453801,16.9673099 C29.2707602,16.9673099 29.9424561,16.295614 29.9424561,15.4702339 C29.9425146,14.6449123 29.2708187,13.9732164 28.4454386,13.9732164 Z M28.4454386,15.9692982 C28.17,15.9692982 27.9464327,15.7452632 27.9464327,15.4702924 C27.9464327,15.1953216 28.17,14.9712865 28.4454386,14.9712865 C28.7208772,14.9712865 28.9444444,15.1953216 28.9444444,15.4702924 C28.9444444,15.7452632 28.7209357,15.9692982 28.4454386,15.9692982 Z"></path>
                <path d="M21.9581287,13.4742105 C21.9581287,12.6488304 21.2864327,11.9771345 20.4610526,11.9771345 C19.6356725,11.9771345 18.9639766,12.6488304 18.9639766,13.4742105 C18.9639766,14.2995906 19.6356725,14.9712865 20.4610526,14.9712865 C21.2864327,14.9712865 21.9581287,14.2995906 21.9581287,13.4742105 Z M19.9619883,13.4742105 C19.9619883,13.1992398 20.1855556,12.9752047 20.4609942,12.9752047 C20.7364327,12.9752047 20.96,13.1992398 20.96,13.4742105 C20.96,13.7491813 20.7364327,13.9732164 20.4609942,13.9732164 C20.1855556,13.9732164 19.9619883,13.7491228 19.9619883,13.4742105 Z"></path>
                <path d="M10.9795322,13.4742105 C10.9795322,12.6488304 10.3078363,11.9771345 9.48245614,11.9771345 C8.65707602,11.9771345 7.98538012,12.6488304 7.98538012,13.4742105 C7.98538012,14.2995906 8.65707602,14.9712865 9.48245614,14.9712865 C10.3078363,14.9712865 10.9795322,14.2995906 10.9795322,13.4742105 Z M9.48245614,13.9732164 C9.20701754,13.9732164 8.98345029,13.7491813 8.98345029,13.4742105 C8.98345029,13.1992398 9.20701754,12.9752047 9.48245614,12.9752047 C9.75789474,12.9752047 9.98146199,13.1992398 9.98146199,13.4742105 C9.98152047,13.7491228 9.75795322,13.9732164 9.48245614,13.9732164 Z"></path>
                <path d="M9.98152047,18.4644444 L9.98152047,20.4605263 C9.98152047,20.7359649 10.2045614,20.9595322 10.4805263,20.9595322 L19.4629825,20.9595322 C19.7389474,20.9595322 19.9619883,20.7359649 19.9619883,20.4605263 L19.9619883,18.4644444 C19.9619883,18.1890058 19.7389474,17.9654386 19.4629825,17.9654386 L10.4805263,17.9654386 C10.2045614,17.9654386 9.98152047,18.1889474 9.98152047,18.4644444 Z M16.9678363,18.9634503 L18.9639181,18.9634503 L18.9639181,19.9615205 L16.9678363,19.9615205 L16.9678363,18.9634503 Z M13.9736842,18.9634503 L15.9697661,18.9634503 L15.9697661,19.9615205 L13.9736842,19.9615205 L13.9736842,18.9634503 Z M10.9795322,18.9634503 L12.975614,18.9634503 L12.975614,19.9615205 L10.9795322,19.9615205 L10.9795322,18.9634503 Z"></path>
            </g>
        </g>
    </g>
</svg>